<svg width="15" height="16" viewBox="0 0 15 16" fill="none" xmlns="http://www.w3.org/2000/svg">
<path d="M6.22953 16C6.10003 16 5.97172 15.9752 5.85153 15.927C5.65287 15.8457 5.48278 15.7073 5.36281 15.5293C5.24283 15.3513 5.17835 15.1417 5.17753 14.927V10.857L0.343534 6.265C0.185521 6.11369 0.0755585 5.9192 0.0273653 5.7058C-0.0208279 5.4924 -0.00511853 5.26953 0.0725336 5.065C0.14362 4.86299 0.274889 4.6876 0.44867 4.56245C0.622452 4.4373 0.830404 4.36839 1.04453 4.365H2.36053V1.092C2.35571 0.807656 2.46387 0.533009 2.66127 0.328296C2.85867 0.123584 3.1292 0.00551974 3.41353 0L9.37753 0C9.66169 0.00578099 9.93197 0.123959 10.1292 0.328643C10.3263 0.533327 10.4344 0.807826 10.4295 1.092V1.82H11.8295C12.1139 1.82552 12.3844 1.94358 12.5818 2.1483C12.7792 2.35301 12.8874 2.62766 12.8825 2.912V4.369H13.9455C14.1614 4.37159 14.3714 4.43999 14.5474 4.56507C14.7234 4.69015 14.8571 4.86595 14.9305 5.069C15.0062 5.27554 15.0198 5.49973 14.9695 5.71387C14.9192 5.92802 14.8073 6.12275 14.6475 6.274L9.73853 11.031V12.2C9.73506 12.469 9.63416 12.7277 9.45453 12.928L7.00153 15.654C6.90432 15.7626 6.78535 15.8495 6.65234 15.9091C6.51934 15.9687 6.37528 15.9997 6.22953 16ZM1.04153 5.461L6.21953 10.376V14.927L8.67553 12.2V10.557L13.9345 5.457L1.04153 5.461ZM3.41353 1.092V4.369H11.8335V2.912H9.37753V1.092H3.41353Z" fill="#959DB3"/>
</svg>
