<svg width="17" height="16" viewBox="0 0 17 16" fill="none" xmlns="http://www.w3.org/2000/svg">
<path d="M14.9998 10.455H11.1318C10.4415 10.455 9.88184 11.0147 9.88184 11.705V14C9.88184 14.6904 10.4415 15.25 11.1318 15.25H14.9998C15.6902 15.25 16.2498 14.6904 16.2498 14V11.705C16.2498 11.0147 15.6902 10.455 14.9998 10.455Z" stroke="#959DB3" stroke-width="1.5"/>
<path d="M5.868 10.455H2C1.30964 10.455 0.75 11.0147 0.75 11.705V14C0.75 14.6904 1.30964 15.25 2 15.25H5.868C6.55836 15.25 7.118 14.6904 7.118 14V11.705C7.118 11.0147 6.55836 10.455 5.868 10.455Z" stroke="#959DB3" stroke-width="1.5"/>
<path d="M10.4339 0.75H6.56592C5.87556 0.75 5.31592 1.30964 5.31592 2V4.295C5.31592 4.98536 5.87556 5.545 6.56592 5.545H10.4339C11.1243 5.545 11.6839 4.98536 11.6839 4.295V2C11.6839 1.30964 11.1243 0.75 10.4339 0.75Z" stroke="#959DB3" stroke-width="1.5"/>
<path d="M3.93408 10.465V7.87201H13.0762V10.465" stroke="#959DB3" stroke-width="1.5" stroke-linecap="round" stroke-linejoin="round"/>
<path d="M8.50586 5.45197V8.01202" stroke="#959DB3" stroke-width="1.5"/>
</svg>
