<svg width="18" height="16" viewBox="0 0 18 16" fill="none" xmlns="http://www.w3.org/2000/svg">
<path d="M8.50875 10.108C6.18575 10.108 4.29675 7.841 4.29675 5.054C4.29675 2.267 6.18575 0 8.50875 0C10.8318 0 12.7198 2.267 12.7198 5.054C12.7198 7.841 10.8308 10.108 8.50875 10.108ZM8.50875 1.263C8.09917 1.27334 7.69759 1.37861 7.33561 1.57053C6.97363 1.76246 6.66114 2.03578 6.42275 2.369C5.84632 3.14406 5.54285 4.08823 5.55975 5.054C5.54285 6.01977 5.84632 6.96394 6.42275 7.739C6.66125 8.07203 6.97378 8.34517 7.33575 8.53691C7.69773 8.72866 8.09926 8.83378 8.50875 8.844C8.91859 8.83408 9.32052 8.72911 9.68286 8.53735C10.0452 8.34559 10.3581 8.0723 10.5968 7.739C11.1721 6.96356 11.4745 6.01942 11.4568 5.054C11.4745 4.08858 11.1721 3.14444 10.5968 2.369C10.3582 2.03552 10.0454 1.76203 9.68301 1.57009C9.32066 1.37816 8.91867 1.27303 8.50875 1.263Z" fill="#959DB3"/>
<path d="M12.3027 9.68401C12.2204 9.6763 12.1374 9.68492 12.0585 9.70937C11.9795 9.73382 11.9061 9.77362 11.8426 9.82648C11.779 9.87935 11.7266 9.94424 11.6881 10.0174C11.6497 10.0906 11.6261 10.1707 11.6187 10.253C11.6011 10.4194 11.6501 10.586 11.7551 10.7163C11.8601 10.8465 12.0124 10.9299 12.1787 10.948C13.1203 11.0666 13.991 11.5101 14.6406 12.202C15.2901 12.8939 15.6778 13.7908 15.7367 14.738H1.28173C1.34746 13.7936 1.73738 12.9008 2.38552 12.2108C3.03367 11.5207 3.90027 11.0757 4.83873 10.951C5.00506 10.9329 5.15741 10.8495 5.26239 10.7193C5.36737 10.589 5.4164 10.4224 5.39873 10.256C5.3917 10.1734 5.36839 10.093 5.33013 10.0195C5.29188 9.94596 5.23945 9.88072 5.17587 9.82755C5.11228 9.77437 5.03879 9.73431 4.95965 9.70968C4.88051 9.68504 4.79727 9.67632 4.71473 9.68401C3.35775 9.86299 2.1186 10.5484 1.24581 11.6028C0.373019 12.6571 -0.0688817 14.0025 0.00873418 15.369C0.00807494 15.4513 0.0236408 15.533 0.0545429 15.6093C0.0854451 15.6857 0.131078 15.7551 0.188837 15.8138C0.246595 15.8725 0.315348 15.9193 0.391169 15.9514C0.46699 15.9835 0.548395 16.0004 0.630734 16.001H16.3867C16.4691 16.0004 16.5505 15.9835 16.6263 15.9514C16.7021 15.9193 16.7709 15.8725 16.8286 15.8138C16.8864 15.7551 16.932 15.6857 16.9629 15.6093C16.9938 15.533 17.0094 15.4513 17.0087 15.369C17.0863 14.0025 16.6444 12.6571 15.7717 11.6028C14.8989 10.5484 13.6597 9.86299 12.3027 9.68401Z" fill="#959DB3"/>
</svg>
